<?xml version="1.0" encoding="utf-8"?>
<!-- Generator: Adobe Illustrator 17.1.0, SVG Export Plug-In . SVG Version: 6.00 Build 0)  -->
<!DOCTYPE svg PUBLIC "-//W3C//DTD SVG 1.0//EN" "http://www.w3.org/TR/2001/REC-SVG-20010904/DTD/svg10.dtd" [
	<!ENTITY st0 "fill:#5E64B2;">
	<!ENTITY st1 "fill:#FA930D;">
]>
<svg version="1.0" id="Layer_1" xmlns="http://www.w3.org/2000/svg" xmlns:xlink="http://www.w3.org/1999/xlink" x="0px" y="0px"
	 viewBox="0 0 422.36 297.64" style="enable-background:new 0 0 422.36 297.64;" xml:space="preserve">
<g>
	<g>
		<path style="&st0;" d="M84.973,165.186c1.315,1.707,2.632,2.439,4.216,2.439c2.753,0,5.151-2.361,5.151-5.927v-9.523
			c0-4.22-2.127-6.54-5.151-6.54c-1.702,0-3.559,0.964-4.801,3.052v-2.476h-5.299v31.999H51.434v-13.024
			c1.315,1.707,2.634,2.439,4.22,2.439c2.751,0,5.149-2.361,5.149-5.927v-9.523c0-4.22-2.125-6.54-5.149-6.54
			c-1.703,0-3.563,0.964-4.801,3.052v-2.476h-5.301v31.999h-4.263v-46.9h21.021v35.735h5.884v-14.675
			c0-1.202,0.498-1.935,1.627-1.935c1.008,0,1.545,0.619,1.545,1.935v14.675h5.888v-16.689c0-3.252-2.17-4.722-4.688-4.722
			c-1.551,0-3.214,0.501-4.373,1.971V131.31h22.662c-0.004,0.08-0.011,0.142-0.011,0.223l0.066,1.994c0,2.916,1.405,6.49,2.1,8.077
			c0,0,1.996,4.092,3.541,5.7c1.542,1.602,2.678,2.804,3.988,4.068c1.212,1.163,2.352,2.265,2.967,3.024
			c1.021,1.262,1.085,2.34,1.177,3.906c0.181,3.052-0.941,4.825-2.674,7.185c-1.764,2.407-2.731,3.447-3.851,4.653
			c-0.562,0.608-1.148,1.239-1.85,2.051l-0.565,0.654c-1.129,1.301-2.083,2.407-2.891,3.421l-1.808,1.944h-6.07V165.186z
			 M88.454,160.499v-7.513c0-1.664-0.58-2.552-1.739-2.552c-1.164,0-1.742,0.888-1.742,2.552v7.513c0,1.666,0.578,2.441,1.742,2.441
			C87.874,162.94,88.454,162.166,88.454,160.499z M54.915,160.499v-7.513c0-1.664-0.578-2.552-1.737-2.552
			c-1.163,0-1.744,0.888-1.744,2.552v7.513c0,1.666,0.581,2.441,1.744,2.441C54.337,162.94,54.915,162.166,54.915,160.499z"/>
		<path style="&st1;" d="M119.753,115.532c1.352-1.565,2.467-2.832,3.382-3.984h-20.507c-1.219,1.558-3.697,4.56-5.112,7.224
			c-1.868,3.525-3.406,6.172-3.557,12.662l0.066,2.093c0,3.093,2.217,7.637,2.217,7.637c0.346,0.808,1.515,2.51,2.263,3.55h-0.018
			c0.248,0.328,0.409,0.539,0.409,0.539c2.21,2.531,5.555,5.36,7.031,7.178c1.726,2.134,1.771,4.13,1.861,5.682
			c0.253,4.201-1.45,6.735-3.268,9.217c-2.747,3.749-3.74,4.445-5.854,6.898c-1.351,1.562-2.46,2.829-3.376,3.981h21.184
			c1.244-1.6,3.01-4.544,4.433-7.224c1.868-3.525,3.408-6.173,3.557-12.659l-0.067-2.093c0-3.093-2.212-7.643-2.212-7.643
			c-0.347-0.807-1.517-2.501-2.27-3.548h0.016c-0.241-0.324-0.408-0.539-0.408-0.539c-2.205-2.531-5.555-5.36-7.026-7.178
			c-1.728-2.13-1.776-4.126-1.868-5.684c-0.25-4.201,1.45-6.735,3.268-9.216C116.647,118.679,117.638,117.979,119.753,115.532z"/>
	</g>
</g>
</svg>
